STARTFONT 2.1
FONT -Japi-Base-Medium-R-Normal--12-120-72-72-C-80-IBM-CP437
SIZE 12 72 72
FONTBOUNDINGBOX 8 12 0 0
STARTPROPERTIES 5
PIXEL_SIZE 12
FONT_ASCENT 12
FONT_DESCENT 0
DEFAULT_CHAR 0
SPACING "C"
ENDPROPERTIES
CHARS 256
STARTCHAR char00
ENCODING 0
SWIDTH 500 0
DWIDTH 8 0
BBX 8 12 0 0
BITMAP
00
00
00
00
00
00
00
00
00
00
00
00
ENDCHAR
STARTCHAR char01
ENCODING 1
SWIDTH 500 0
DWIDTH 8 0
BBX 8 12 0 0
BITMAP
00
00
00
00
3C
42
A5
81
A5
99
42
3C
ENDCHAR
STARTCHAR char02
ENCODING 2
SWIDTH 500 0
DWIDTH 8 0
BBX 8 12 0 0
BITMAP
00
00
00
00
3C
7E
DB
FF
C3
E7
7E
3C
ENDCHAR
STARTCHAR char03
ENCODING 3
SWIDTH 500 0
DWIDTH 8 0
BBX 8 12 0 0
BITMAP
00
00
00
00
18
3C
7E
FF
FF
7E
3C
18
ENDCHAR
STARTCHAR char04
ENCODING 4
SWIDTH 500 0
DWIDTH 8 0
BBX 8 12 0 0
BITMAP
00
00
00
00
18
3C
7E
FF
7E
3C
18
00
ENDCHAR
STARTCHAR char05
ENCODING 5
SWIDTH 500 0
DWIDTH 8 0
BBX 8 12 0 0
BITMAP
00
00
00
00
3C
7E
FF
FF
7E
18
3C
00
ENDCHAR
STARTCHAR char06
ENCODING 6
SWIDTH 500 0
DWIDTH 8 0
BBX 8 12 0 0
BITMAP
00
00
00
00
18
3C
7E
FF
3C
3C
7E
00
ENDCHAR
STARTCHAR char07
ENCODING 7
SWIDTH 500 0
DWIDTH 8 0
BBX 8 12 0 0
BITMAP
00
00
00
00
00
00
18
3C
3C
18
00
00
ENDCHAR
STARTCHAR char08
ENCODING 8
SWIDTH 500 0
DWIDTH 8 0
BBX 8 12 0 0
BITMAP
00
00
FF
FF
E7
C3
C3
C3
C3
E7
FF
FF
ENDCHAR
STARTCHAR char09
ENCODING 9
SWIDTH 500 0
DWIDTH 8 0
BBX 8 12 0 0
BITMAP
00
00
00
00
3C
66
42
42
66
3C
00
00
ENDCHAR
STARTCHAR char0A
ENCODING 10
SWIDTH 500 0
DWIDTH 8 0
BBX 8 12 0 0
BITMAP
00
00
FF
FF
C3
99
BD
BD
99
C3
FF
FF
ENDCHAR
STARTCHAR char0B
ENCODING 11
SWIDTH 500 0
DWIDTH 8 0
BBX 8 12 0 0
BITMAP
00
00
00
3C
66
42
42
66
3C
18
7E
18
ENDCHAR
STARTCHAR char0C
ENCODING 12
SWIDTH 500 0
DWIDTH 8 0
BBX 8 12 0 0
BITMAP
00
00
00
3E
63
3E
1C
3E
1C
1C
00
00
ENDCHAR
STARTCHAR char0D
ENCODING 13
SWIDTH 500 0
DWIDTH 8 0
BBX 8 12 0 0
BITMAP
00
00
00
00
0C
1E
3E
1E
0C
00
00
00
ENDCHAR
STARTCHAR char0E
ENCODING 14
SWIDTH 500 0
DWIDTH 8 0
BBX 8 12 0 0
BITMAP
00
00
00
00
0C
1E
3E
1E
0C
1C
1C
00
ENDCHAR
STARTCHAR char0F
ENCODING 15
SWIDTH 500 0
DWIDTH 8 0
BBX 8 12 0 0
BITMAP
00
00
00
18
3C
7E
18
18
18
7E
3C
18
ENDCHAR
STARTCHAR char10
ENCODING 16
SWIDTH 500 0
DWIDTH 8 0
BBX 8 12 0 0
BITMAP
00
00
00
00
10
38
7C
FE
7C
38
10
00
ENDCHAR
STARTCHAR char11
ENCODING 17
SWIDTH 500 0
DWIDTH 8 0
BBX 8 12 0 0
BITMAP
00
00
00
00
10
38
7C
FE
7C
38
10
00
ENDCHAR
STARTCHAR char12
ENCODING 18
SWIDTH 500 0
DWIDTH 8 0
BBX 8 12 0 0
BITMAP
00
00
00
18
3C
7E
18
18
7E
3C
18
00
ENDCHAR
STARTCHAR char13
ENCODING 19
SWIDTH 500 0
DWIDTH 8 0
BBX 8 12 0 0
BITMAP
00
00
00
66
66
66
66
66
00
66
66
00
ENDCHAR
STARTCHAR char14
ENCODING 20
SWIDTH 500 0
DWIDTH 8 0
BBX 8 12 0 0
BITMAP
00
00
00
7E
DB
DB
7E
DB
DB
7E
00
00
ENDCHAR
STARTCHAR char15
ENCODING 21
SWIDTH 500 0
DWIDTH 8 0
BBX 8 12 0 0
BITMAP
00
00
00
3C
06
3E
66
3E
60
3C
00
00
ENDCHAR
STARTCHAR char16
ENCODING 22
SWIDTH 500 0
DWIDTH 8 0
BBX 8 12 0 0
BITMAP
00
00
00
00
00
00
00
FF
00
00
00
00
ENDCHAR
STARTCHAR char17
ENCODING 23
SWIDTH 500 0
DWIDTH 8 0
BBX 8 12 0 0
BITMAP
00
00
00
18
3C
7E
18
18
7E
3C
18
00
ENDCHAR
STARTCHAR char18
ENCODING 24
SWIDTH 500 0
DWIDTH 8 0
BBX 8 12 0 0
BITMAP
00
00
00
18
3C
7E
18
18
18
18
00
00
ENDCHAR
STARTCHAR char19
ENCODING 25
SWIDTH 500 0
DWIDTH 8 0
BBX 8 12 0 0
BITMAP
00
00
00
18
18
18
18
7E
3C
18
00
00
ENDCHAR
STARTCHAR char1A
ENCODING 26
SWIDTH 500 0
DWIDTH 8 0
BBX 8 12 0 0
BITMAP
00
00
00
00
18
0C
FE
0C
18
00
00
00
ENDCHAR
STARTCHAR char1B
ENCODING 27
SWIDTH 500 0
DWIDTH 8 0
BBX 8 12 0 0
BITMAP
00
00
00
00
30
60
FE
60
30
00
00
00
ENDCHAR
STARTCHAR char1C
ENCODING 28
SWIDTH 500 0
DWIDTH 8 0
BBX 8 12 0 0
BITMAP
00
00
00
00
00
C0
C0
C0
FE
00
00
00
ENDCHAR
STARTCHAR char1D
ENCODING 29
SWIDTH 500 0
DWIDTH 8 0
BBX 8 12 0 0
BITMAP
00
00
00
3C
3C
3C
3C
3C
3C
3C
00
00
ENDCHAR
STARTCHAR char1E
ENCODING 30
SWIDTH 500 0
DWIDTH 8 0
BBX 8 12 0 0
BITMAP
00
00
00
18
3C
7E
18
00
00
00
00
00
ENDCHAR
STARTCHAR char1F
ENCODING 31
SWIDTH 500 0
DWIDTH 8 0
BBX 8 12 0 0
BITMAP
00
00
00
00
00
00
18
7E
3C
18
00
00
ENDCHAR
STARTCHAR char20
ENCODING 32
SWIDTH 500 0
DWIDTH 8 0
BBX 8 12 0 0
BITMAP
00
00
00
00
00
00
00
00
00
00
00
00
ENDCHAR
STARTCHAR char21
ENCODING 33
SWIDTH 500 0
DWIDTH 8 0
BBX 8 12 0 0
BITMAP
00
00
18
3C
3C
3C
18
18
00
18
18
00
ENDCHAR
STARTCHAR char22
ENCODING 34
SWIDTH 500 0
DWIDTH 8 0
BBX 8 12 0 0
BITMAP
00
00
66
66
66
24
00
00
00
00
00
00
ENDCHAR
STARTCHAR char23
ENCODING 35
SWIDTH 500 0
DWIDTH 8 0
BBX 8 12 0 0
BITMAP
00
00
6C
6C
FE
6C
FE
6C
6C
00
00
00
ENDCHAR
STARTCHAR char24
ENCODING 36
SWIDTH 500 0
DWIDTH 8 0
BBX 8 12 0 0
BITMAP
00
00
18
3E
60
3C
06
7C
18
00
00
00
ENDCHAR
STARTCHAR char25
ENCODING 37
SWIDTH 500 0
DWIDTH 8 0
BBX 8 12 0 0
BITMAP
00
00
00
C6
CC
18
30
66
C6
00
00
00
ENDCHAR
STARTCHAR char26
ENCODING 38
SWIDTH 500 0
DWIDTH 8 0
BBX 8 12 0 0
BITMAP
00
00
38
6C
38
76
DC
CC
76
00
00
00
ENDCHAR
STARTCHAR char27
ENCODING 39
SWIDTH 500 0
DWIDTH 8 0
BBX 8 12 0 0
BITMAP
00
00
18
18
30
00
00
00
00
00
00
00
ENDCHAR
STARTCHAR char28
ENCODING 40
SWIDTH 500 0
DWIDTH 8 0
BBX 8 12 0 0
BITMAP
00
00
0C
18
30
30
30
18
0C
00
00
00
ENDCHAR
STARTCHAR char29
ENCODING 41
SWIDTH 500 0
DWIDTH 8 0
BBX 8 12 0 0
BITMAP
00
00
30
18
0C
0C
0C
18
30
00
00
00
ENDCHAR
STARTCHAR char2A
ENCODING 42
SWIDTH 500 0
DWIDTH 8 0
BBX 8 12 0 0
BITMAP
00
00
00
66
3C
FF
3C
66
00
00
00
00
ENDCHAR
STARTCHAR char2B
ENCODING 43
SWIDTH 500 0
DWIDTH 8 0
BBX 8 12 0 0
BITMAP
00
00
00
18
18
7E
18
18
00
00
00
00
ENDCHAR
STARTCHAR char2C
ENCODING 44
SWIDTH 500 0
DWIDTH 8 0
BBX 8 12 0 0
BITMAP
00
00
00
00
00
00
00
18
18
30
00
00
ENDCHAR
STARTCHAR char2D
ENCODING 45
SWIDTH 500 0
DWIDTH 8 0
BBX 8 12 0 0
BITMAP
00
00
00
00
00
7E
00
00
00
00
00
00
ENDCHAR
STARTCHAR char2E
ENCODING 46
SWIDTH 500 0
DWIDTH 8 0
BBX 8 12 0 0
BITMAP
00
00
00
00
00
00
00
18
18
00
00
00
ENDCHAR
STARTCHAR char2F
ENCODING 47
SWIDTH 500 0
DWIDTH 8 0
BBX 8 12 0 0
BITMAP
00
00
00
06
0C
18
30
60
00
00
00
00
ENDCHAR
STARTCHAR 0
ENCODING 48
SWIDTH 500 0
DWIDTH 8 0
BBX 8 12 0 0
BITMAP
00
00
3C
66
6E
76
66
66
3C
00
00
00
ENDCHAR
STARTCHAR 1
ENCODING 49
SWIDTH 500 0
DWIDTH 8 0
BBX 8 12 0 0
BITMAP
00
00
18
38
18
18
18
18
7E
00
00
00
ENDCHAR
STARTCHAR 2
ENCODING 50
SWIDTH 500 0
DWIDTH 8 0
BBX 8 12 0 0
BITMAP
00
00
3C
66
06
0C
18
30
7E
00
00
00
ENDCHAR
STARTCHAR 3
ENCODING 51
SWIDTH 500 0
DWIDTH 8 0
BBX 8 12 0 0
BITMAP
00
00
3C
66
06
1C
06
66
3C
00
00
00
ENDCHAR
STARTCHAR 4
ENCODING 52
SWIDTH 500 0
DWIDTH 8 0
BBX 8 12 0 0
BITMAP
00
00
06
0E
1E
36
66
7F
06
00
00
00
ENDCHAR
STARTCHAR 5
ENCODING 53
SWIDTH 500 0
DWIDTH 8 0
BBX 8 12 0 0
BITMAP
00
00
7E
60
7C
06
06
66
3C
00
00
00
ENDCHAR
STARTCHAR 6
ENCODING 54
SWIDTH 500 0
DWIDTH 8 0
BBX 8 12 0 0
BITMAP
00
00
3C
66
60
7C
66
66
3C
00
00
00
ENDCHAR
STARTCHAR 7
ENCODING 55
SWIDTH 500 0
DWIDTH 8 0
BBX 8 12 0 0
BITMAP
00
00
7E
06
0C
18
30
30
30
00
00
00
ENDCHAR
STARTCHAR 8
ENCODING 56
SWIDTH 500 0
DWIDTH 8 0
BBX 8 12 0 0
BITMAP
00
00
3C
66
66
3C
66
66
3C
00
00
00
ENDCHAR
STARTCHAR 9
ENCODING 57
SWIDTH 500 0
DWIDTH 8 0
BBX 8 12 0 0
BITMAP
00
00
3C
66
66
3E
06
66
3C
00
00
00
ENDCHAR
STARTCHAR char3A
ENCODING 58
SWIDTH 500 0
DWIDTH 8 0
BBX 8 12 0 0
BITMAP
00
00
00
18
18
00
00
18
18
00
00
00
ENDCHAR
STARTCHAR char3B
ENCODING 59
SWIDTH 500 0
DWIDTH 8 0
BBX 8 12 0 0
BITMAP
00
00
00
18
18
00
00
18
18
30
00
00
ENDCHAR
STARTCHAR char3C
ENCODING 60
SWIDTH 500 0
DWIDTH 8 0
BBX 8 12 0 0
BITMAP
00
00
0C
18
30
60
30
18
0C
00
00
00
ENDCHAR
STARTCHAR char3D
ENCODING 61
SWIDTH 500 0
DWIDTH 8 0
BBX 8 12 0 0
BITMAP
00
00
00
00
7E
00
7E
00
00
00
00
00
ENDCHAR
STARTCHAR char3E
ENCODING 62
SWIDTH 500 0
DWIDTH 8 0
BBX 8 12 0 0
BITMAP
00
00
30
18
0C
06
0C
18
30
00
00
00
ENDCHAR
STARTCHAR char3F
ENCODING 63
SWIDTH 500 0
DWIDTH 8 0
BBX 8 12 0 0
BITMAP
00
00
3C
66
06
0C
18
00
18
00
00
00
ENDCHAR
STARTCHAR char40
ENCODING 64
SWIDTH 500 0
DWIDTH 8 0
BBX 8 12 0 0
BITMAP
00
00
3C
66
6E
6E
60
62
3C
00
00
00
ENDCHAR
STARTCHAR A
ENCODING 65
SWIDTH 500 0
DWIDTH 8 0
BBX 8 12 0 0
BITMAP
00
00
18
3C
66
66
7E
66
66
00
00
00
ENDCHAR
STARTCHAR B
ENCODING 66
SWIDTH 500 0
DWIDTH 8 0
BBX 8 12 0 0
BITMAP
00
00
7C
66
66
7C
66
66
7C
00
00
00
ENDCHAR
STARTCHAR C
ENCODING 67
SWIDTH 500 0
DWIDTH 8 0
BBX 8 12 0 0
BITMAP
00
00
3C
66
60
60
60
66
3C
00
00
00
ENDCHAR
STARTCHAR D
ENCODING 68
SWIDTH 500 0
DWIDTH 8 0
BBX 8 12 0 0
BITMAP
00
00
F8
6C
66
66
66
6C
F8
00
00
00
ENDCHAR
STARTCHAR E
ENCODING 69
SWIDTH 500 0
DWIDTH 8 0
BBX 8 12 0 0
BITMAP
00
00
7E
60
60
78
60
60
7E
00
00
00
ENDCHAR
STARTCHAR F
ENCODING 70
SWIDTH 500 0
DWIDTH 8 0
BBX 8 12 0 0
BITMAP
00
00
7E
60
60
78
60
60
60
00
00
00
ENDCHAR
STARTCHAR G
ENCODING 71
SWIDTH 500 0
DWIDTH 8 0
BBX 8 12 0 0
BITMAP
00
00
3C
66
60
6E
66
66
3C
00
00
00
ENDCHAR
STARTCHAR H
ENCODING 72
SWIDTH 500 0
DWIDTH 8 0
BBX 8 12 0 0
BITMAP
00
00
66
66
66
7E
66
66
66
00
00
00
ENDCHAR
STARTCHAR I
ENCODING 73
SWIDTH 500 0
DWIDTH 8 0
BBX 8 12 0 0
BITMAP
00
00
3C
18
18
18
18
18
3C
00
00
00
ENDCHAR
STARTCHAR J
ENCODING 74
SWIDTH 500 0
DWIDTH 8 0
BBX 8 12 0 0
BITMAP
00
00
1E
0C
0C
0C
CC
CC
78
00
00
00
ENDCHAR
STARTCHAR K
ENCODING 75
SWIDTH 500 0
DWIDTH 8 0
BBX 8 12 0 0
BITMAP
00
00
E6
66
6C
78
6C
66
E6
00
00
00
ENDCHAR
STARTCHAR L
ENCODING 76
SWIDTH 500 0
DWIDTH 8 0
BBX 8 12 0 0
BITMAP
00
00
F0
60
60
60
60
60
7E
00
00
00
ENDCHAR
STARTCHAR M
ENCODING 77
SWIDTH 500 0
DWIDTH 8 0
BBX 8 12 0 0
BITMAP
00
00
C6
EE
FE
D6
C6
C6
C6
00
00
00
ENDCHAR
STARTCHAR N
ENCODING 78
SWIDTH 500 0
DWIDTH 8 0
BBX 8 12 0 0
BITMAP
00
00
C6
E6
F6
DE
CE
C6
C6
00
00
00
ENDCHAR
STARTCHAR O
ENCODING 79
SWIDTH 500 0
DWIDTH 8 0
BBX 8 12 0 0
BITMAP
00
00
3C
66
66
66
66
66
3C
00
00
00
ENDCHAR
STARTCHAR P
ENCODING 80
SWIDTH 500 0
DWIDTH 8 0
BBX 8 12 0 0
BITMAP
00
00
FC
66
66
7C
60
60
F0
00
00
00
ENDCHAR
STARTCHAR Q
ENCODING 81
SWIDTH 500 0
DWIDTH 8 0
BBX 8 12 0 0
BITMAP
00
00
7C
66
66
66
66
3C
0E
00
00
00
ENDCHAR
STARTCHAR R
ENCODING 82
SWIDTH 500 0
DWIDTH 8 0
BBX 8 12 0 0
BITMAP
00
00
FC
66
66
7C
6C
66
E6
00
00
00
ENDCHAR
STARTCHAR S
ENCODING 83
SWIDTH 500 0
DWIDTH 8 0
BBX 8 12 0 0
BITMAP
00
00
3C
66
60
3C
06
66
3C
00
00
00
ENDCHAR
STARTCHAR T
ENCODING 84
SWIDTH 500 0
DWIDTH 8 0
BBX 8 12 0 0
BITMAP
00
00
7E
18
18
18
18
18
18
00
00
00
ENDCHAR
STARTCHAR U
ENCODING 85
SWIDTH 500 0
DWIDTH 8 0
BBX 8 12 0 0
BITMAP
00
00
66
66
66
66
66
66
3C
00
00
00
ENDCHAR
STARTCHAR V
ENCODING 86
SWIDTH 500 0
DWIDTH 8 0
BBX 8 12 0 0
BITMAP
00
00
66
66
66
66
66
3C
18
00
00
00
ENDCHAR
STARTCHAR W
ENCODING 87
SWIDTH 500 0
DWIDTH 8 0
BBX 8 12 0 0
BITMAP
00
00
C6
C6
C6
D6
FE
EE
C6
00
00
00
ENDCHAR
STARTCHAR X
ENCODING 88
SWIDTH 500 0
DWIDTH 8 0
BBX 8 12 0 0
BITMAP
00
00
C6
C6
6C
38
6C
C6
C6
00
00
00
ENDCHAR
STARTCHAR Y
ENCODING 89
SWIDTH 500 0
DWIDTH 8 0
BBX 8 12 0 0
BITMAP
00
00
66
66
66
3C
18
18
18
00
00
00
ENDCHAR
STARTCHAR Z
ENCODING 90
SWIDTH 500 0
DWIDTH 8 0
BBX 8 12 0 0
BITMAP
00
00
FE
06
0C
18
30
60
FE
00
00
00
ENDCHAR
STARTCHAR char5B
ENCODING 91
SWIDTH 500 0
DWIDTH 8 0
BBX 8 12 0 0
BITMAP
00
00
3C
30
30
30
30
30
3C
00
00
00
ENDCHAR
STARTCHAR char5C
ENCODING 92
SWIDTH 500 0
DWIDTH 8 0
BBX 8 12 0 0
BITMAP
00
00
00
60
30
18
0C
06
00
00
00
00
ENDCHAR
STARTCHAR char5D
ENCODING 93
SWIDTH 500 0
DWIDTH 8 0
BBX 8 12 0 0
BITMAP
00
00
3C
0C
0C
0C
0C
0C
3C
00
00
00
ENDCHAR
STARTCHAR char5E
ENCODING 94
SWIDTH 500 0
DWIDTH 8 0
BBX 8 12 0 0
BITMAP
00
00
10
28
44
00
00
00
00
00
00
00
ENDCHAR
STARTCHAR char5F
ENCODING 95
SWIDTH 500 0
DWIDTH 8 0
BBX 8 12 0 0
BITMAP
00
00
00
00
00
00
00
00
00
FF
00
00
ENDCHAR
STARTCHAR char60
ENCODING 96
SWIDTH 500 0
DWIDTH 8 0
BBX 8 12 0 0
BITMAP
00
00
18
0C
00
00
00
00
00
00
00
00
ENDCHAR
STARTCHAR a
ENCODING 97
SWIDTH 500 0
DWIDTH 8 0
BBX 8 12 0 0
BITMAP
00
00
00
00
3C
06
3E
66
3E
00
00
00
ENDCHAR
STARTCHAR b
ENCODING 98
SWIDTH 500 0
DWIDTH 8 0
BBX 8 12 0 0
BITMAP
00
00
00
60
60
7C
66
66
7C
00
00
00
ENDCHAR
STARTCHAR c
ENCODING 99
SWIDTH 500 0
DWIDTH 8 0
BBX 8 12 0 0
BITMAP
00
00
00
00
3C
60
60
60
3C
00
00
00
ENDCHAR
STARTCHAR d
ENCODING 100
SWIDTH 500 0
DWIDTH 8 0
BBX 8 12 0 0
BITMAP
00
00
00
06
06
3E
66
66
3E
00
00
00
ENDCHAR
STARTCHAR e
ENCODING 101
SWIDTH 500 0
DWIDTH 8 0
BBX 8 12 0 0
BITMAP
00
00
00
00
3C
66
7E
60
3C
00
00
00
ENDCHAR
STARTCHAR f
ENCODING 102
SWIDTH 500 0
DWIDTH 8 0
BBX 8 12 0 0
BITMAP
00
00
00
1C
36
30
78
30
30
00
00
00
ENDCHAR
STARTCHAR g
ENCODING 103
SWIDTH 500 0
DWIDTH 8 0
BBX 8 12 0 0
BITMAP
00
00
00
00
3E
66
66
3E
06
7C
00
00
ENDCHAR
STARTCHAR h
ENCODING 104
SWIDTH 500 0
DWIDTH 8 0
BBX 8 12 0 0
BITMAP
00
00
00
60
60
7C
66
66
66
00
00
00
ENDCHAR
STARTCHAR i
ENCODING 105
SWIDTH 500 0
DWIDTH 8 0
BBX 8 12 0 0
BITMAP
00
00
00
18
00
18
18
18
3C
00
00
00
ENDCHAR
STARTCHAR j
ENCODING 106
SWIDTH 500 0
DWIDTH 8 0
BBX 8 12 0 0
BITMAP
00
00
00
06
00
06
06
06
06
3C
00
00
ENDCHAR
STARTCHAR k
ENCODING 107
SWIDTH 500 0
DWIDTH 8 0
BBX 8 12 0 0
BITMAP
00
00
00
60
60
66
6C
78
6C
00
00
00
ENDCHAR
STARTCHAR l
ENCODING 108
SWIDTH 500 0
DWIDTH 8 0
BBX 8 12 0 0
BITMAP
00
00
00
38
18
18
18
18
3C
00
00
00
ENDCHAR
STARTCHAR m
ENCODING 109
SWIDTH 500 0
DWIDTH 8 0
BBX 8 12 0 0
BITMAP
00
00
00
00
EC
FE
D6
C6
C6
00
00
00
ENDCHAR
STARTCHAR n
ENCODING 110
SWIDTH 500 0
DWIDTH 8 0
BBX 8 12 0 0
BITMAP
00
00
00
00
DC
66
66
66
66
00
00
00
ENDCHAR
STARTCHAR o
ENCODING 111
SWIDTH 500 0
DWIDTH 8 0
BBX 8 12 0 0
BITMAP
00
00
00
00
3C
66
66
66
3C
00
00
00
ENDCHAR
STARTCHAR p
ENCODING 112
SWIDTH 500 0
DWIDTH 8 0
BBX 8 12 0 0
BITMAP
00
00
00
00
DC
66
66
7C
60
60
60
00
ENDCHAR
STARTCHAR q
ENCODING 113
SWIDTH 500 0
DWIDTH 8 0
BBX 8 12 0 0
BITMAP
00
00
00
00
3E
66
66
3E
06
06
06
00
ENDCHAR
STARTCHAR r
ENCODING 114
SWIDTH 500 0
DWIDTH 8 0
BBX 8 12 0 0
BITMAP
00
00
00
00
DC
66
60
60
60
00
00
00
ENDCHAR
STARTCHAR s
ENCODING 115
SWIDTH 500 0
DWIDTH 8 0
BBX 8 12 0 0
BITMAP
00
00
00
00
3E
60
3C
06
7C
00
00
00
ENDCHAR
STARTCHAR t
ENCODING 116
SWIDTH 500 0
DWIDTH 8 0
BBX 8 12 0 0
BITMAP
00
00
00
30
78
30
30
30
34
18
00
00
ENDCHAR
STARTCHAR u
ENCODING 117
SWIDTH 500 0
DWIDTH 8 0
BBX 8 12 0 0
BITMAP
00
00
00
00
66
66
66
66
3E
00
00
00
ENDCHAR
STARTCHAR v
ENCODING 118
SWIDTH 500 0
DWIDTH 8 0
BBX 8 12 0 0
BITMAP
00
00
00
00
66
66
66
3C
18
00
00
00
ENDCHAR
STARTCHAR w
ENCODING 119
SWIDTH 500 0
DWIDTH 8 0
BBX 8 12 0 0
BITMAP
00
00
00
00
C6
D6
FE
EE
C6
00
00
00
ENDCHAR
STARTCHAR x
ENCODING 120
SWIDTH 500 0
DWIDTH 8 0
BBX 8 12 0 0
BITMAP
00
00
00
00
C6
6C
38
6C
C6
00
00
00
ENDCHAR
STARTCHAR y
ENCODING 121
SWIDTH 500 0
DWIDTH 8 0
BBX 8 12 0 0
BITMAP
00
00
00
00
66
66
66
3E
06
7C
00
00
ENDCHAR
STARTCHAR z
ENCODING 122
SWIDTH 500 0
DWIDTH 8 0
BBX 8 12 0 0
BITMAP
00
00
00
00
7E
0C
18
30
7E
00
00
00
ENDCHAR
STARTCHAR char7B
ENCODING 123
SWIDTH 500 0
DWIDTH 8 0
BBX 8 12 0 0
BITMAP
00
00
00
0E
18
18
70
18
18
0E
00
00
ENDCHAR
STARTCHAR char7C
ENCODING 124
SWIDTH 500 0
DWIDTH 8 0
BBX 8 12 0 0
BITMAP
00
00
00
18
18
18
18
18
18
18
00
00
ENDCHAR
STARTCHAR char7D
ENCODING 125
SWIDTH 500 0
DWIDTH 8 0
BBX 8 12 0 0
BITMAP
00
00
00
70
18
18
0E
18
18
70
00
00
ENDCHAR
STARTCHAR char7E
ENCODING 126
SWIDTH 500 0
DWIDTH 8 0
BBX 8 12 0 0
BITMAP
00
00
00
76
DC
00
00
00
00
00
00
00
ENDCHAR
STARTCHAR char7F
ENCODING 127
SWIDTH 500 0
DWIDTH 8 0
BBX 8 12 0 0
BITMAP
00
00
00
00
00
00
3C
66
7E
66
66
66
ENDCHAR
STARTCHAR char80
ENCODING 128
SWIDTH 500 0
DWIDTH 8 0
BBX 8 12 0 0
BITMAP
00
00
00
00
3C
66
60
66
3C
18
00
00
ENDCHAR
STARTCHAR char81
ENCODING 129
SWIDTH 500 0
DWIDTH 8 0
BBX 8 12 0 0
BITMAP
00
00
00
00
66
00
66
66
66
3E
00
00
ENDCHAR
STARTCHAR char82
ENCODING 130
SWIDTH 500 0
DWIDTH 8 0
BBX 8 12 0 0
BITMAP
00
00
00
00
0C
00
3C
66
7E
60
3C
00
ENDCHAR
STARTCHAR char83
ENCODING 131
SWIDTH 500 0
DWIDTH 8 0
BBX 8 12 0 0
BITMAP
00
00
00
00
3C
66
06
3E
66
66
3F
00
ENDCHAR
STARTCHAR char84
ENCODING 132
SWIDTH 500 0
DWIDTH 8 0
BBX 8 12 0 0
BITMAP
00
00
00
00
66
00
3C
06
3E
66
3F
00
ENDCHAR
STARTCHAR char85
ENCODING 133
SWIDTH 500 0
DWIDTH 8 0
BBX 8 12 0 0
BITMAP
00
00
00
00
30
00
3C
06
3E
66
3F
00
ENDCHAR
STARTCHAR char86
ENCODING 134
SWIDTH 500 0
DWIDTH 8 0
BBX 8 12 0 0
BITMAP
00
00
00
00
1C
00
3C
06
3E
66
3F
00
ENDCHAR
STARTCHAR char87
ENCODING 135
SWIDTH 500 0
DWIDTH 8 0
BBX 8 12 0 0
BITMAP
00
00
00
00
00
00
3C
60
60
60
3C
18
ENDCHAR
STARTCHAR char88
ENCODING 136
SWIDTH 500 0
DWIDTH 8 0
BBX 8 12 0 0
BITMAP
00
00
00
00
3C
66
00
3C
66
7E
60
3C
ENDCHAR
STARTCHAR char89
ENCODING 137
SWIDTH 500 0
DWIDTH 8 0
BBX 8 12 0 0
BITMAP
00
00
00
00
66
00
3C
66
7E
60
3C
00
ENDCHAR
STARTCHAR char8A
ENCODING 138
SWIDTH 500 0
DWIDTH 8 0
BBX 8 12 0 0
BITMAP
00
00
00
00
18
00
3C
66
7E
60
3C
00
ENDCHAR
STARTCHAR char8B
ENCODING 139
SWIDTH 500 0
DWIDTH 8 0
BBX 8 12 0 0
BITMAP
00
00
00
00
66
00
18
18
18
18
3C
00
ENDCHAR
STARTCHAR char8C
ENCODING 140
SWIDTH 500 0
DWIDTH 8 0
BBX 8 12 0 0
BITMAP
00
00
00
00
3C
66
00
18
18
18
3C
00
ENDCHAR
STARTCHAR char8D
ENCODING 141
SWIDTH 500 0
DWIDTH 8 0
BBX 8 12 0 0
BITMAP
00
00
00
00
18
00
18
18
18
18
3C
00
ENDCHAR
STARTCHAR char8E
ENCODING 142
SWIDTH 500 0
DWIDTH 8 0
BBX 8 12 0 0
BITMAP
00
00
00
66
00
18
3C
66
66
7E
66
66
ENDCHAR
STARTCHAR char8F
ENCODING 143
SWIDTH 500 0
DWIDTH 8 0
BBX 8 12 0 0
BITMAP
00
00
00
1C
00
18
3C
66
66
7E
66
66
ENDCHAR
STARTCHAR char90
ENCODING 144
SWIDTH 500 0
DWIDTH 8 0
BBX 8 12 0 0
BITMAP
00
00
00
30
00
7E
60
60
78
60
60
7E
ENDCHAR
STARTCHAR char91
ENCODING 145
SWIDTH 500 0
DWIDTH 8 0
BBX 8 12 0 0
BITMAP
00
00
00
00
00
9E
B0
F0
F6
F6
DE
00
ENDCHAR
STARTCHAR char92
ENCODING 146
SWIDTH 500 0
DWIDTH 8 0
BBX 8 12 0 0
BITMAP
00
00
00
9C
B6
B6
F6
F6
B6
B6
B6
00
ENDCHAR
STARTCHAR char93
ENCODING 147
SWIDTH 500 0
DWIDTH 8 0
BBX 8 12 0 0
BITMAP
00
00
00
00
3C
66
00
3C
66
66
3C
00
ENDCHAR
STARTCHAR char94
ENCODING 148
SWIDTH 500 0
DWIDTH 8 0
BBX 8 12 0 0
BITMAP
00
00
00
00
66
00
3C
66
66
3C
00
00
ENDCHAR
STARTCHAR char95
ENCODING 149
SWIDTH 500 0
DWIDTH 8 0
BBX 8 12 0 0
BITMAP
00
00
00
00
18
00
3C
66
66
3C
00
00
ENDCHAR
STARTCHAR char96
ENCODING 150
SWIDTH 500 0
DWIDTH 8 0
BBX 8 12 0 0
BITMAP
00
00
00
00
3C
66
00
66
66
66
3E
00
ENDCHAR
STARTCHAR char97
ENCODING 151
SWIDTH 500 0
DWIDTH 8 0
BBX 8 12 0 0
BITMAP
00
00
00
00
18
00
66
66
66
3E
00
00
ENDCHAR
STARTCHAR char98
ENCODING 152
SWIDTH 500 0
DWIDTH 8 0
BBX 8 12 0 0
BITMAP
00
00
00
00
66
00
66
66
66
3E
06
7C
ENDCHAR
STARTCHAR char99
ENCODING 153
SWIDTH 500 0
DWIDTH 8 0
BBX 8 12 0 0
BITMAP
00
00
00
66
00
3C
66
66
66
66
3C
00
ENDCHAR
STARTCHAR char9A
ENCODING 154
SWIDTH 500 0
DWIDTH 8 0
BBX 8 12 0 0
BITMAP
00
00
00
66
00
66
66
66
66
66
3C
00
ENDCHAR
STARTCHAR char9B
ENCODING 155
SWIDTH 500 0
DWIDTH 8 0
BBX 8 12 0 0
BITMAP
00
00
00
0C
18
18
30
18
18
30
00
00
ENDCHAR
STARTCHAR char9C
ENCODING 156
SWIDTH 500 0
DWIDTH 8 0
BBX 8 12 0 0
BITMAP
00
00
00
18
08
3E
08
08
3E
08
18
00
ENDCHAR
STARTCHAR char9D
ENCODING 157
SWIDTH 500 0
DWIDTH 8 0
BBX 8 12 0 0
BITMAP
00
00
00
18
18
00
38
18
18
18
18
38
ENDCHAR
STARTCHAR char9E
ENCODING 158
SWIDTH 500 0
DWIDTH 8 0
BBX 8 12 0 0
BITMAP
00
00
00
00
66
24
18
7E
18
24
66
00
ENDCHAR
STARTCHAR char9F
ENCODING 159
SWIDTH 500 0
DWIDTH 8 0
BBX 8 12 0 0
BITMAP
00
00
00
00
18
70
A8
20
20
20
70
00
ENDCHAR
STARTCHAR charA0
ENCODING 160
SWIDTH 500 0
DWIDTH 8 0
BBX 8 12 0 0
BITMAP
00
00
00
00
0C
00
3C
06
3E
66
3F
00
ENDCHAR
STARTCHAR charA1
ENCODING 161
SWIDTH 500 0
DWIDTH 8 0
BBX 8 12 0 0
BITMAP
00
00
00
00
18
00
18
18
18
3C
00
00
ENDCHAR
STARTCHAR charA2
ENCODING 162
SWIDTH 500 0
DWIDTH 8 0
BBX 8 12 0 0
BITMAP
00
00
00
00
0C
00
3C
66
66
3C
00
00
ENDCHAR
STARTCHAR charA3
ENCODING 163
SWIDTH 500 0
DWIDTH 8 0
BBX 8 12 0 0
BITMAP
00
00
00
00
0C
00
66
66
66
3E
00
00
ENDCHAR
STARTCHAR charA4
ENCODING 164
SWIDTH 500 0
DWIDTH 8 0
BBX 8 12 0 0
BITMAP
00
00
00
00
76
DC
00
DC
66
66
66
00
ENDCHAR
STARTCHAR charA5
ENCODING 165
SWIDTH 500 0
DWIDTH 8 0
BBX 8 12 0 0
BITMAP
00
00
00
76
DC
00
C6
E6
F6
DE
CE
C6
ENDCHAR
STARTCHAR charA6
ENCODING 166
SWIDTH 500 0
DWIDTH 8 0
BBX 8 12 0 0
BITMAP
00
00
00
3C
66
66
3E
00
7E
00
00
00
ENDCHAR
STARTCHAR charA7
ENCODING 167
SWIDTH 500 0
DWIDTH 8 0
BBX 8 12 0 0
BITMAP
00
00
00
18
3C
66
66
3C
00
7E
00
00
ENDCHAR
STARTCHAR charA8
ENCODING 168
SWIDTH 500 0
DWIDTH 8 0
BBX 8 12 0 0
BITMAP
00
00
00
18
00
18
18
18
18
3C
00
00
ENDCHAR
STARTCHAR charA9
ENCODING 169
SWIDTH 500 0
DWIDTH 8 0
BBX 8 12 0 0
BITMAP
00
00
00
00
00
00
7E
C3
C3
7E
00
00
ENDCHAR
STARTCHAR charAA
ENCODING 170
SWIDTH 500 0
DWIDTH 8 0
BBX 8 12 0 0
BITMAP
00
00
00
00
00
00
00
00
3C
00
00
00
ENDCHAR
STARTCHAR charAB
ENCODING 171
SWIDTH 500 0
DWIDTH 8 0
BBX 8 12 0 0
BITMAP
00
00
00
66
24
18
18
18
24
66
00
00
ENDCHAR
STARTCHAR charAC
ENCODING 172
SWIDTH 500 0
DWIDTH 8 0
BBX 8 12 0 0
BITMAP
00
00
00
0C
0C
30
18
CC
CC
00
00
00
ENDCHAR
STARTCHAR charAD
ENCODING 173
SWIDTH 500 0
DWIDTH 8 0
BBX 8 12 0 0
BITMAP
00
00
00
18
18
00
18
18
18
18
18
00
ENDCHAR
STARTCHAR charAE
ENCODING 174
SWIDTH 500 0
DWIDTH 8 0
BBX 8 12 0 0
BITMAP
00
00
00
30
18
0C
06
0C
18
30
00
00
ENDCHAR
STARTCHAR charAF
ENCODING 175
SWIDTH 500 0
DWIDTH 8 0
BBX 8 12 0 0
BITMAP
00
00
00
0C
18
30
60
30
18
0C
00
00
ENDCHAR
STARTCHAR charB0
ENCODING 176
SWIDTH 500 0
DWIDTH 8 0
BBX 8 12 0 0
BITMAP
AA
55
AA
55
AA
55
AA
55
AA
55
AA
55
ENDCHAR
STARTCHAR charB1
ENCODING 177
SWIDTH 500 0
DWIDTH 8 0
BBX 8 12 0 0
BITMAP
BB
EE
BB
EE
BB
EE
BB
EE
BB
EE
BB
EE
ENDCHAR
STARTCHAR charB2
ENCODING 178
SWIDTH 500 0
DWIDTH 8 0
BBX 8 12 0 0
BITMAP
DD
77
DD
77
DD
77
DD
77
DD
77
DD
77
ENDCHAR
STARTCHAR charB3
ENCODING 179
SWIDTH 500 0
DWIDTH 8 0
BBX 8 12 0 0
BITMAP
18
18
18
18
18
18
18
18
18
18
18
18
ENDCHAR
STARTCHAR charB4
ENCODING 180
SWIDTH 500 0
DWIDTH 8 0
BBX 8 12 0 0
BITMAP
18
18
18
18
18
F8
18
18
18
18
18
18
ENDCHAR
STARTCHAR charB5
ENCODING 181
SWIDTH 500 0
DWIDTH 8 0
BBX 8 12 0 0
BITMAP
18
18
18
18
18
F8
18
18
18
18
18
18
ENDCHAR
STARTCHAR charB6
ENCODING 182
SWIDTH 500 0
DWIDTH 8 0
BBX 8 12 0 0
BITMAP
18
18
18
18
18
F8
18
18
18
18
18
18
ENDCHAR
STARTCHAR charB7
ENCODING 183
SWIDTH 500 0
DWIDTH 8 0
BBX 8 12 0 0
BITMAP
00
00
00
00
00
1F
18
18
18
18
18
18
ENDCHAR
STARTCHAR charB8
ENCODING 184
SWIDTH 500 0
DWIDTH 8 0
BBX 8 12 0 0
BITMAP
00
00
00
00
00
1F
18
18
18
18
18
18
ENDCHAR
STARTCHAR charB9
ENCODING 185
SWIDTH 500 0
DWIDTH 8 0
BBX 8 12 0 0
BITMAP
18
18
18
18
18
F8
18
18
18
18
18
18
ENDCHAR
STARTCHAR charBA
ENCODING 186
SWIDTH 500 0
DWIDTH 8 0
BBX 8 12 0 0
BITMAP
24
24
24
24
24
24
24
24
24
24
24
24
ENDCHAR
STARTCHAR charBB
ENCODING 187
SWIDTH 500 0
DWIDTH 8 0
BBX 8 12 0 0
BITMAP
00
00
00
00
00
3F
24
24
24
24
24
24
ENDCHAR
STARTCHAR charBC
ENCODING 188
SWIDTH 500 0
DWIDTH 8 0
BBX 8 12 0 0
BITMAP
24
24
24
24
24
3F
00
00
00
00
00
00
ENDCHAR
STARTCHAR charBD
ENCODING 189
SWIDTH 500 0
DWIDTH 8 0
BBX 8 12 0 0
BITMAP
24
24
24
24
24
3F
00
00
00
00
00
00
ENDCHAR
STARTCHAR charBE
ENCODING 190
SWIDTH 500 0
DWIDTH 8 0
BBX 8 12 0 0
BITMAP
24
24
24
24
24
3F
00
00
00
00
00
00
ENDCHAR
STARTCHAR charBF
ENCODING 191
SWIDTH 500 0
DWIDTH 8 0
BBX 8 12 0 0
BITMAP
00
00
00
00
00
F8
18
18
18
18
18
18
ENDCHAR
STARTCHAR charC0
ENCODING 192
SWIDTH 500 0
DWIDTH 8 0
BBX 8 12 0 0
BITMAP
18
18
18
18
18
1F
00
00
00
00
00
00
ENDCHAR
STARTCHAR charC1
ENCODING 193
SWIDTH 500 0
DWIDTH 8 0
BBX 8 12 0 0
BITMAP
18
18
18
18
18
FF
00
00
00
00
00
00
ENDCHAR
STARTCHAR charC2
ENCODING 194
SWIDTH 500 0
DWIDTH 8 0
BBX 8 12 0 0
BITMAP
00
00
00
00
00
FF
18
18
18
18
18
18
ENDCHAR
STARTCHAR charC3
ENCODING 195
SWIDTH 500 0
DWIDTH 8 0
BBX 8 12 0 0
BITMAP
18
18
18
18
18
1F
18
18
18
18
18
18
ENDCHAR
STARTCHAR charC4
ENCODING 196
SWIDTH 500 0
DWIDTH 8 0
BBX 8 12 0 0
BITMAP
00
00
00
00
00
FF
00
00
00
00
00
00
ENDCHAR
STARTCHAR charC5
ENCODING 197
SWIDTH 500 0
DWIDTH 8 0
BBX 8 12 0 0
BITMAP
18
18
18
18
18
FF
18
18
18
18
18
18
ENDCHAR
STARTCHAR charC6
ENCODING 198
SWIDTH 500 0
DWIDTH 8 0
BBX 8 12 0 0
BITMAP
18
18
18
18
18
FF
18
18
18
18
18
18
ENDCHAR
STARTCHAR charC7
ENCODING 199
SWIDTH 500 0
DWIDTH 8 0
BBX 8 12 0 0
BITMAP
18
18
18
18
18
FF
18
18
18
18
18
18
ENDCHAR
STARTCHAR charC8
ENCODING 200
SWIDTH 500 0
DWIDTH 8 0
BBX 8 12 0 0
BITMAP
24
24
24
24
24
3F
00
00
00
00
00
00
ENDCHAR
STARTCHAR charC9
ENCODING 201
SWIDTH 500 0
DWIDTH 8 0
BBX 8 12 0 0
BITMAP
00
00
00
00
00
3F
24
24
24
24
24
24
ENDCHAR
STARTCHAR charCA
ENCODING 202
SWIDTH 500 0
DWIDTH 8 0
BBX 8 12 0 0
BITMAP
24
24
24
24
24
FF
00
00
00
00
00
00
ENDCHAR
STARTCHAR charCB
ENCODING 203
SWIDTH 500 0
DWIDTH 8 0
BBX 8 12 0 0
BITMAP
00
00
00
00
00
FF
24
24
24
24
24
24
ENDCHAR
STARTCHAR charCC
ENCODING 204
SWIDTH 500 0
DWIDTH 8 0
BBX 8 12 0 0
BITMAP
24
24
24
24
24
3F
24
24
24
24
24
24
ENDCHAR
STARTCHAR charCD
ENCODING 205
SWIDTH 500 0
DWIDTH 8 0
BBX 8 12 0 0
BITMAP
00
00
00
00
24
FF
24
00
00
00
00
00
ENDCHAR
STARTCHAR charCE
ENCODING 206
SWIDTH 500 0
DWIDTH 8 0
BBX 8 12 0 0
BITMAP
24
24
24
24
24
FF
24
24
24
24
24
24
ENDCHAR
STARTCHAR charCF
ENCODING 207
SWIDTH 500 0
DWIDTH 8 0
BBX 8 12 0 0
BITMAP
18
18
18
18
18
FF
00
00
00
00
00
00
ENDCHAR
STARTCHAR charD0
ENCODING 208
SWIDTH 500 0
DWIDTH 8 0
BBX 8 12 0 0
BITMAP
00
00
00
00
00
FF
18
18
18
18
18
18
ENDCHAR
STARTCHAR charD1
ENCODING 209
SWIDTH 500 0
DWIDTH 8 0
BBX 8 12 0 0
BITMAP
00
00
00
00
00
FF
00
00
00
00
00
00
ENDCHAR
STARTCHAR charD2
ENCODING 210
SWIDTH 500 0
DWIDTH 8 0
BBX 8 12 0 0
BITMAP
00
00
00
00
00
FF
00
00
00
00
00
00
ENDCHAR
STARTCHAR charD3
ENCODING 211
SWIDTH 500 0
DWIDTH 8 0
BBX 8 12 0 0
BITMAP
18
18
18
18
18
FF
00
00
00
00
00
00
ENDCHAR
STARTCHAR charD4
ENCODING 212
SWIDTH 500 0
DWIDTH 8 0
BBX 8 12 0 0
BITMAP
18
18
18
18
18
FF
00
00
00
00
00
00
ENDCHAR
STARTCHAR charD5
ENCODING 213
SWIDTH 500 0
DWIDTH 8 0
BBX 8 12 0 0
BITMAP
00
00
00
00
00
F8
18
18
18
18
18
18
ENDCHAR
STARTCHAR charD6
ENCODING 214
SWIDTH 500 0
DWIDTH 8 0
BBX 8 12 0 0
BITMAP
00
00
00
00
00
F8
18
18
18
18
18
18
ENDCHAR
STARTCHAR charD7
ENCODING 215
SWIDTH 500 0
DWIDTH 8 0
BBX 8 12 0 0
BITMAP
18
18
18
18
18
FF
18
18
18
18
18
18
ENDCHAR
STARTCHAR charD8
ENCODING 216
SWIDTH 500 0
DWIDTH 8 0
BBX 8 12 0 0
BITMAP
18
18
18
18
18
FF
18
18
18
18
18
18
ENDCHAR
STARTCHAR charD9
ENCODING 217
SWIDTH 500 0
DWIDTH 8 0
BBX 8 12 0 0
BITMAP
18
18
18
18
18
F8
00
00
00
00
00
00
ENDCHAR
STARTCHAR charDA
ENCODING 218
SWIDTH 500 0
DWIDTH 8 0
BBX 8 12 0 0
BITMAP
00
00
00
00
00
1F
18
18
18
18
18
18
ENDCHAR
STARTCHAR charDB
ENCODING 219
SWIDTH 500 0
DWIDTH 8 0
BBX 8 12 0 0
BITMAP
FF
FF
FF
FF
FF
FF
FF
FF
FF
FF
FF
FF
ENDCHAR
STARTCHAR charDC
ENCODING 220
SWIDTH 500 0
DWIDTH 8 0
BBX 8 12 0 0
BITMAP
00
00
00
00
00
00
FF
FF
FF
FF
FF
FF
ENDCHAR
STARTCHAR charDD
ENCODING 221
SWIDTH 500 0
DWIDTH 8 0
BBX 8 12 0 0
BITMAP
FF
FF
FF
FF
FF
FF
00
00
00
00
00
00
ENDCHAR
STARTCHAR charDE
ENCODING 222
SWIDTH 500 0
DWIDTH 8 0
BBX 8 12 0 0
BITMAP
0F
0F
0F
0F
0F
0F
0F
0F
0F
0F
0F
0F
ENDCHAR
STARTCHAR charDF
ENCODING 223
SWIDTH 500 0
DWIDTH 8 0
BBX 8 12 0 0
BITMAP
FF
FF
FF
FF
FF
FF
00
00
00
00
00
00
ENDCHAR
STARTCHAR charE0
ENCODING 224
SWIDTH 500 0
DWIDTH 8 0
BBX 8 12 0 0
BITMAP
00
00
00
00
3E
41
41
3E
41
41
00
00
ENDCHAR
STARTCHAR charE1
ENCODING 225
SWIDTH 500 0
DWIDTH 8 0
BBX 8 12 0 0
BITMAP
00
00
00
7C
42
42
7C
42
42
7C
40
00
ENDCHAR
STARTCHAR charE2
ENCODING 226
SWIDTH 500 0
DWIDTH 8 0
BBX 8 12 0 0
BITMAP
00
00
00
7E
40
40
40
40
40
00
00
00
ENDCHAR
STARTCHAR charE3
ENCODING 227
SWIDTH 500 0
DWIDTH 8 0
BBX 8 12 0 0
BITMAP
00
00
00
3E
40
40
40
40
40
40
00
00
ENDCHAR
STARTCHAR charE4
ENCODING 228
SWIDTH 500 0
DWIDTH 8 0
BBX 8 12 0 0
BITMAP
00
00
00
7E
40
20
10
20
40
7E
00
00
ENDCHAR
STARTCHAR charE5
ENCODING 229
SWIDTH 500 0
DWIDTH 8 0
BBX 8 12 0 0
BITMAP
00
00
00
3C
42
42
02
04
42
3C
00
00
ENDCHAR
STARTCHAR charE6
ENCODING 230
SWIDTH 500 0
DWIDTH 8 0
BBX 8 12 0 0
BITMAP
00
00
00
42
42
42
42
42
7E
40
40
00
ENDCHAR
STARTCHAR charE7
ENCODING 231
SWIDTH 500 0
DWIDTH 8 0
BBX 8 12 0 0
BITMAP
00
00
00
7E
18
18
18
18
18
00
00
00
ENDCHAR
STARTCHAR charE8
ENCODING 232
SWIDTH 500 0
DWIDTH 8 0
BBX 8 12 0 0
BITMAP
00
00
00
3C
24
24
FF
24
24
3C
00
00
ENDCHAR
STARTCHAR charE9
ENCODING 233
SWIDTH 500 0
DWIDTH 8 0
BBX 8 12 0 0
BITMAP
00
00
00
3C
42
FF
42
42
3C
00
00
00
ENDCHAR
STARTCHAR charEA
ENCODING 234
SWIDTH 500 0
DWIDTH 8 0
BBX 8 12 0 0
BITMAP
00
00
00
38
44
44
44
44
44
44
38
00
ENDCHAR
STARTCHAR charEB
ENCODING 235
SWIDTH 500 0
DWIDTH 8 0
BBX 8 12 0 0
BITMAP
00
00
00
3C
24
24
24
24
24
3C
00
00
ENDCHAR
STARTCHAR charEC
ENCODING 236
SWIDTH 500 0
DWIDTH 8 0
BBX 8 12 0 0
BITMAP
00
00
00
3C
42
42
3C
42
42
3C
00
00
ENDCHAR
STARTCHAR charED
ENCODING 237
SWIDTH 500 0
DWIDTH 8 0
BBX 8 12 0 0
BITMAP
00
00
00
3C
42
42
3C
24
24
24
00
00
ENDCHAR
STARTCHAR charEE
ENCODING 238
SWIDTH 500 0
DWIDTH 8 0
BBX 8 12 0 0
BITMAP
00
00
00
3C
42
42
3C
00
00
00
00
00
ENDCHAR
STARTCHAR charEF
ENCODING 239
SWIDTH 500 0
DWIDTH 8 0
BBX 8 12 0 0
BITMAP
00
00
00
3C
42
42
42
42
42
00
00
00
ENDCHAR
STARTCHAR charF0
ENCODING 240
SWIDTH 500 0
DWIDTH 8 0
BBX 8 12 0 0
BITMAP
00
00
00
7E
00
7E
00
7E
00
00
00
00
ENDCHAR
STARTCHAR charF1
ENCODING 241
SWIDTH 500 0
DWIDTH 8 0
BBX 8 12 0 0
BITMAP
00
00
00
18
18
7E
18
18
00
7E
00
00
ENDCHAR
STARTCHAR charF2
ENCODING 242
SWIDTH 500 0
DWIDTH 8 0
BBX 8 12 0 0
BITMAP
00
00
00
42
24
18
24
42
00
7E
00
00
ENDCHAR
STARTCHAR charF3
ENCODING 243
SWIDTH 500 0
DWIDTH 8 0
BBX 8 12 0 0
BITMAP
00
00
00
42
24
18
24
42
00
7E
00
00
ENDCHAR
STARTCHAR charF4
ENCODING 244
SWIDTH 500 0
DWIDTH 8 0
BBX 8 12 0 0
BITMAP
00
00
00
18
24
24
18
18
18
00
00
00
ENDCHAR
STARTCHAR charF5
ENCODING 245
SWIDTH 500 0
DWIDTH 8 0
BBX 8 12 0 0
BITMAP
00
00
00
18
18
18
18
24
24
18
00
00
ENDCHAR
STARTCHAR charF6
ENCODING 246
SWIDTH 500 0
DWIDTH 8 0
BBX 8 12 0 0
BITMAP
00
00
00
18
00
7E
00
18
00
00
00
00
ENDCHAR
STARTCHAR charF7
ENCODING 247
SWIDTH 500 0
DWIDTH 8 0
BBX 8 12 0 0
BITMAP
00
00
00
00
42
24
00
42
24
00
00
00
ENDCHAR
STARTCHAR charF8
ENCODING 248
SWIDTH 500 0
DWIDTH 8 0
BBX 8 12 0 0
BITMAP
00
00
00
1C
22
22
1C
00
00
00
00
00
ENDCHAR
STARTCHAR charF9
ENCODING 249
SWIDTH 500 0
DWIDTH 8 0
BBX 8 12 0 0
BITMAP
00
00
00
18
3C
3C
18
00
00
00
00
00
ENDCHAR
STARTCHAR charFA
ENCODING 250
SWIDTH 500 0
DWIDTH 8 0
BBX 8 12 0 0
BITMAP
00
00
00
18
18
00
00
00
00
00
00
00
ENDCHAR
STARTCHAR charFB
ENCODING 251
SWIDTH 500 0
DWIDTH 8 0
BBX 8 12 0 0
BITMAP
00
00
00
00
40
40
20
10
08
04
7E
00
ENDCHAR
STARTCHAR charFC
ENCODING 252
SWIDTH 500 0
DWIDTH 8 0
BBX 8 12 0 0
BITMAP
00
00
00
3C
06
3C
66
66
00
00
00
00
ENDCHAR
STARTCHAR charFD
ENCODING 253
SWIDTH 500 0
DWIDTH 8 0
BBX 8 12 0 0
BITMAP
00
00
00
3C
42
02
04
08
7E
00
00
00
ENDCHAR
STARTCHAR charFE
ENCODING 254
SWIDTH 500 0
DWIDTH 8 0
BBX 8 12 0 0
BITMAP
00
00
00
3C
3C
3C
3C
3C
3C
3C
00
00
ENDCHAR
STARTCHAR charFF
ENCODING 255
SWIDTH 500 0
DWIDTH 8 0
BBX 8 12 0 0
BITMAP
00
00
00
00
00
00
00
00
00
00
00
00
ENDCHAR
ENDFONT
